<?xml version="1.0" encoding="UTF-8"?>
<svg id="Layer_1" data-name="Layer 1" xmlns="http://www.w3.org/2000/svg" xmlns:xlink="http://www.w3.org/1999/xlink" viewBox="0 0 323.91 80.19">
  <defs>
    <style>
      .cls-1 {
        fill: #c6996f;
      }

      .cls-2 {
        fill: #8b4a2f;
      }

      .cls-3 {
        fill: #fff;
      }

      .cls-4 {
        filter: url(#drop-shadow-1);
      }

      .cls-5 {
        fill: #171719;
      }
    </style>
    <filter id="drop-shadow-1" x="-.92" y="0" width="59.28" height="43.84" filterUnits="userSpaceOnUse">
      <feOffset dx="-.5" dy=".5"/>
      <feGaussianBlur result="blur" stdDeviation=".1"/>
      <feFlood flood-color="#231f20" flood-opacity=".8"/>
      <feComposite in2="blur" operator="in"/>
      <feComposite in="SourceGraphic"/>
    </filter>
  </defs>
  <g>
    <path class="cls-3" d="M23.99,61.76h-5.68l-6.31-17.33-6.31,17.33H0l8.68-22.1h6.63l8.68,22.1ZM18.62,52.99v4.1H5.37v-4.1h13.26Z"/>
    <path class="cls-3" d="M34.25,39.64l9.47.03c1.43,0,2.7.23,3.8.69,1.1.46,1.96,1.11,2.56,1.94.6.83.9,1.78.9,2.86,0,1.18-.31,2.16-.93,2.95-.62.79-1.53,1.36-2.73,1.72,1.49.34,2.64.98,3.42,1.94.79.96,1.18,2.2,1.18,3.74,0,1.24-.3,2.34-.9,3.28-.6.95-1.45,1.68-2.56,2.19-1.1.52-2.37.77-3.8.77h-10.42v-22.13ZM45.19,48.02c.49-.39.74-.92.74-1.59,0-.74-.25-1.31-.74-1.74-.49-.42-1.19-.63-2.1-.63h-3.79v13.29h4.73c.9,0,1.6-.23,2.1-.68.49-.45.74-1.08.74-1.88,0-.76-.25-1.35-.74-1.77-.49-.42-1.19-.63-2.1-.63h-5.24v-3.79h4.29c.9,0,1.6-.19,2.1-.58Z"/>
    <path class="cls-3" d="M63.13,39.67h9.47c2.31,0,4.36.46,6.12,1.37s3.14,2.21,4.1,3.88c.97,1.67,1.45,3.6,1.45,5.79s-.48,4.12-1.45,5.79c-.97,1.67-2.34,2.97-4.1,3.88s-3.81,1.37-6.12,1.37h-9.47v-22.1ZM76.07,56.52c1.01-.55,1.79-1.33,2.34-2.34.55-1.01.82-2.17.82-3.47s-.27-2.46-.82-3.47c-.55-1.01-1.33-1.79-2.34-2.34-1.01-.55-2.17-.82-3.47-.82h-4.42v13.26h4.42c1.3,0,2.46-.27,3.47-.82Z"/>
    <path class="cls-3" d="M112.76,59.43c-1.78,1.77-4.26,2.65-7.43,2.65s-5.66-.88-7.43-2.65c-1.78-1.77-2.67-4.24-2.67-7.42v-12.34h5.05v12.34c0,1.79.44,3.18,1.33,4.17.88.99,2.12,1.48,3.72,1.48s2.84-.49,3.72-1.48c.88-.99,1.33-2.38,1.33-4.17v-12.34h5.05v12.34c0,3.18-.89,5.65-2.67,7.42Z"/>
    <path class="cls-3" d="M132.7,39.67v19.1l-1.42-1.42h10.26v4.42h-13.89v-22.1h5.05Z"/>
    <path class="cls-3" d="M163.46,49.25c.64-.56.96-1.28.96-2.16s-.32-1.63-.95-2.18c-.63-.55-1.47-.82-2.53-.82h-4.1v17.68h-5.05v-22.1h9.15c1.68,0,3.17.29,4.47.88,1.29.59,2.29,1.42,3,2.49s1.06,2.31,1.06,3.72c0,1.16-.28,2.2-.85,3.14-.57.94-1.31,1.67-2.24,2.21-.93.54-1.92.81-2.97.81h-.32l-1.58,1.26h-5.18v-4.1h4.61c1.03,0,1.87-.28,2.51-.84ZM172,61.76h-6l-4.07-6.63c-.21-.36-.46-.6-.76-.74s-.71-.21-1.23-.21l2.53-2.46c1.22-.04,2.13.07,2.73.33.6.26,1.15.79,1.66,1.59l5.15,8.11Z"/>
    <path class="cls-3" d="M204.03,61.76h-5.68l-6.31-17.33-6.31,17.33h-5.68l8.68-22.1h6.63l8.68,22.1ZM198.67,52.99v4.1h-13.26v-4.1h13.26Z"/>
    <path class="cls-3" d="M214.29,39.67h5.05v22.1h-5.05v-22.1ZM218.84,48.35h11.11v4.42h-11.11v-4.42ZM229.44,39.67h5.05v22.1h-5.05v-22.1Z"/>
    <path class="cls-3" d="M260.85,39.67v4.42h-10.26l1.42-1.42v16.1l-1.42-1.42h10.26v4.42h-13.89v-22.1h13.89ZM260.85,48.35v4.42h-11.36v-4.42h11.36Z"/>
    <path class="cls-3" d="M286.7,39.67v4.42h-10.26l1.42-1.42v16.1l-1.42-1.42h10.26v4.42h-13.89v-22.1h13.89ZM286.7,48.35v4.42h-11.36v-4.42h11.36Z"/>
    <path class="cls-3" d="M323.91,39.67v22.1h-5.05v-17.36l-5.05,17.36h-5.05l-5.05-17.36v17.36h-5.05v-22.1h7.89l4.74,16.41,4.73-16.41h7.89Z"/>
  </g>
  <g>
    <path class="cls-3" d="M8,75.19c.38.47.88.7,1.51.7.76,0,1.37-.23,1.83-.7.46-.47.69-1.07.69-1.83h.45c0,1.04-.28,1.87-.83,2.49-.55.62-1.32.93-2.29.93-.59,0-1.11-.14-1.56-.42-.45-.28-.79-.67-1.04-1.19s-.37-1.12-.37-1.81v-4.16h1.04v4.16c0,.75.19,1.36.57,1.83ZM13.07,76.63h-1.04v-7.43h1.04v7.43Z"/>
    <path class="cls-3" d="M19.5,69.2h1.04v7.43h-1.04v-7.43ZM24.99,70.72c-.4-.52-.99-.77-1.77-.77-.53,0-1.01.12-1.41.36-.41.24-.72.58-.94,1-.22.43-.33.91-.33,1.46h-.45c0-.72.13-1.36.4-1.92.27-.56.66-1,1.17-1.31.51-.32,1.13-.48,1.85-.48,1.02,0,1.79.33,2.32.98.53.65.79,1.56.79,2.73v3.86h-1.04v-3.86c0-.85-.2-1.54-.6-2.05Z"/>
    <path class="cls-3" d="M34.03,65.34v11.29h-1.04v-11.29h1.04Z"/>
    <path class="cls-3" d="M47.41,72.45l-.64.48c0-.58-.12-1.1-.36-1.56s-.58-.81-1-1.05c-.43-.25-.91-.37-1.46-.37-.5,0-.96.11-1.37.34-.41.23-.75.55-1,.97s-.41.9-.45,1.45v.43c.04.54.19,1.02.45,1.44s.59.74,1.01.97c.42.23.87.34,1.37.34.59,0,1.1-.12,1.51-.35.41-.23.74-.56.97-.99h1.11c-.31.7-.76,1.25-1.37,1.64-.61.39-1.35.59-2.22.59-.74,0-1.41-.16-2-.48-.59-.32-1.05-.77-1.37-1.36-.33-.58-.49-1.26-.49-2.02s.16-1.44.49-2.02c.33-.58.78-1.04,1.37-1.36.59-.32,1.25-.48,2-.48s1.41.16,2,.48c.59.32,1.05.77,1.37,1.36.33.58.49,1.26.49,2.02v.37h-7.17v-.82h6.77Z"/>
    <path class="cls-3" d="M59.1,69.57c.53.34.95.81,1.24,1.4.29.59.44,1.24.44,1.95s-.15,1.36-.44,1.95c-.29.59-.71,1.05-1.24,1.4-.53.34-1.16.51-1.89.51-.76,0-1.44-.16-2.02-.48s-1.04-.77-1.36-1.36c-.32-.58-.48-1.26-.48-2.02s.16-1.44.48-2.02c.32-.58.77-1.04,1.36-1.36s1.26-.48,2.02-.48,1.35.17,1.89.51ZM59.52,75.07c.54-.54.82-1.26.82-2.15s-.27-1.61-.82-2.15c-.54-.54-1.26-.82-2.15-.82s-1.61.27-2.15.82c-.54.54-.82,1.26-.82,2.15s.27,1.61.82,2.15c.54.54,1.26.82,2.15.82s1.61-.27,2.15-.82ZM60.19,75.01l.45-2.09-.45-2.08v-1.63h1.04v7.43h-1.04v-1.62Z"/>
    <path class="cls-3" d="M71.51,69.36c.45.2.81.49,1.08.85.27.36.42.77.45,1.23h-1.05c-.05-.47-.26-.83-.62-1.09-.37-.26-.81-.39-1.32-.39-.49,0-.88.11-1.18.33-.3.22-.45.5-.45.86,0,.31.09.55.28.72.19.17.48.3.89.39l1.08.22c.87.18,1.5.44,1.89.78.39.34.59.8.59,1.39,0,.43-.12.8-.37,1.12-.25.32-.59.57-1.04.75s-.96.27-1.54.27c-.92,0-1.66-.22-2.21-.65-.56-.44-.86-1.01-.91-1.72h.98c.05.46.26.82.65,1.08.38.27.88.4,1.49.4.57,0,1.04-.11,1.39-.33.35-.22.53-.52.53-.88,0-.32-.12-.57-.36-.77-.24-.2-.64-.35-1.18-.46l-1.1-.22c-.73-.15-1.27-.38-1.6-.71-.33-.32-.5-.76-.5-1.33,0-.63.25-1.15.74-1.54s1.14-.59,1.94-.59c.53,0,1.03.1,1.48.3Z"/>
    <path class="cls-3" d="M78.98,65.34h1.04v11.29h-1.04v-11.29ZM84.47,70.72c-.4-.52-.99-.77-1.77-.77-.53,0-1.01.12-1.41.36-.41.24-.72.58-.94,1-.22.43-.33.91-.33,1.46h-.45c0-.72.13-1.36.4-1.92.27-.56.66-1,1.17-1.31.51-.32,1.13-.48,1.85-.48,1.02,0,1.79.33,2.32.98.53.65.79,1.56.79,2.73v3.86h-1.04v-3.86c0-.85-.2-1.54-.6-2.05Z"/>
    <path class="cls-3" d="M99.27,72.45l-.64.48c0-.58-.12-1.1-.36-1.56s-.58-.81-1-1.05c-.43-.25-.91-.37-1.46-.37-.5,0-.96.11-1.37.34-.41.23-.75.55-1,.97s-.41.9-.45,1.45v.43c.04.54.19,1.02.45,1.44s.59.74,1.01.97c.42.23.87.34,1.37.34.59,0,1.1-.12,1.51-.35.41-.23.74-.56.97-.99h1.11c-.31.7-.76,1.25-1.37,1.64-.61.39-1.35.59-2.22.59-.74,0-1.41-.16-2-.48-.59-.32-1.05-.77-1.37-1.36-.33-.58-.49-1.26-.49-2.02s.16-1.44.49-2.02c.33-.58.78-1.04,1.37-1.36.59-.32,1.25-.48,2-.48s1.41.16,2,.48c.59.32,1.05.77,1.37,1.36.33.58.49,1.26.49,2.02v.37h-7.17v-.82h6.77Z"/>
    <path class="cls-3" d="M110.96,69.57c.53.34.95.81,1.24,1.4.29.59.44,1.24.44,1.95s-.15,1.36-.44,1.95c-.29.59-.71,1.05-1.24,1.4-.53.34-1.16.51-1.89.51-.76,0-1.44-.16-2.02-.48s-1.04-.77-1.36-1.36c-.32-.58-.48-1.26-.48-2.02s.16-1.44.48-2.02c.32-.58.77-1.04,1.36-1.36s1.26-.48,2.02-.48,1.35.17,1.89.51ZM111.37,75.07c.54-.54.82-1.26.82-2.15s-.27-1.61-.82-2.15c-.54-.54-1.26-.82-2.15-.82s-1.61.27-2.15.82c-.54.54-.82,1.26-.82,2.15s.27,1.61.82,2.15c.54.54,1.26.82,2.15.82s1.61-.27,2.15-.82ZM112.04,75.01l.45-2.09-.45-2.08v-5.5h1.04v11.29h-1.04v-1.62Z"/>
    <path class="cls-3" d="M128.47,70.84l-.45,2.08.45,2.09v1.62h-1.04v-11.29h1.04v5.5ZM133.46,69.54c.58.32,1.04.77,1.36,1.36.32.58.48,1.26.48,2.02s-.16,1.44-.48,2.02c-.32.58-.77,1.04-1.36,1.36-.58.32-1.26.48-2.02.48-.72,0-1.35-.17-1.89-.51-.53-.34-.95-.81-1.24-1.4-.29-.59-.44-1.24-.44-1.95s.15-1.36.44-1.95c.29-.59.71-1.05,1.24-1.4.54-.34,1.16-.51,1.89-.51.76,0,1.44.16,2.02.48ZM133.45,75.07c.54-.54.82-1.26.82-2.15s-.27-1.61-.82-2.15c-.54-.54-1.26-.82-2.15-.82s-1.61.27-2.15.82-.82,1.26-.82,2.15.27,1.61.82,2.15,1.26.82,2.15.82,1.61-.27,2.15-.82Z"/>
    <path class="cls-3" d="M148.17,72.45l-.64.48c0-.58-.12-1.1-.36-1.56-.24-.46-.58-.81-1-1.05-.43-.25-.91-.37-1.46-.37-.5,0-.96.11-1.37.34-.41.23-.75.55-1,.97-.26.42-.41.9-.45,1.45v.43c.04.54.19,1.02.45,1.44.26.42.59.74,1.01.97.42.23.87.34,1.37.34.59,0,1.1-.12,1.51-.35.41-.23.74-.56.97-.99h1.11c-.31.7-.76,1.25-1.37,1.64s-1.35.59-2.22.59c-.74,0-1.41-.16-2-.48s-1.05-.77-1.37-1.36c-.33-.58-.49-1.26-.49-2.02s.16-1.44.49-2.02c.33-.58.79-1.04,1.37-1.36s1.25-.48,2-.48,1.41.16,2,.48c.59.32,1.05.77,1.37,1.36.33.58.49,1.26.49,2.02v.37h-7.17v-.82h6.77Z"/>
    <path class="cls-3" d="M154.18,79.3h.59c.36,0,.64-.08.85-.24.21-.16.4-.45.58-.86l.65-1.57-3.19-7.43h1.19l2.6,6.12,2.45-6.12h1.19l-3.04,7.43-.85,1.89c-.27.6-.59,1.03-.96,1.29-.37.26-.86.39-1.46.39h-.59v-.89Z"/>
    <path class="cls-3" d="M172.3,69.54c.61.32,1.08.77,1.41,1.36.33.58.5,1.26.5,2.02s-.17,1.44-.5,2.02c-.33.58-.8,1.04-1.41,1.36-.61.32-1.31.48-2.1.48s-1.49-.16-2.1-.48-1.08-.77-1.41-1.36c-.33-.58-.5-1.26-.5-2.02s.17-1.44.5-2.02c.33-.58.8-1.04,1.41-1.36s1.31-.48,2.1-.48,1.49.16,2.1.48ZM172.35,75.07c.54-.54.82-1.26.82-2.15s-.27-1.61-.82-2.15c-.54-.54-1.26-.82-2.15-.82s-1.61.27-2.15.82c-.54.54-.82,1.26-.82,2.15s.27,1.61.82,2.15c.54.54,1.26.82,2.15.82s1.61-.27,2.15-.82Z"/>
    <path class="cls-3" d="M180.19,69.2h1.04v7.43h-1.04v-7.43ZM185.68,70.72c-.4-.52-.99-.77-1.78-.77-.53,0-1,.12-1.41.36-.41.24-.72.58-.94,1-.22.43-.33.91-.33,1.46h-.45c0-.72.13-1.36.4-1.92.27-.56.66-1,1.17-1.31s1.13-.48,1.85-.48c1.02,0,1.79.33,2.32.98.53.65.79,1.56.79,2.73v3.86h-1.04v-3.86c0-.85-.2-1.54-.6-2.05Z"/>
    <path class="cls-3" d="M198.91,69.57c.54.34.95.81,1.24,1.4.29.59.44,1.24.44,1.95s-.15,1.36-.44,1.95c-.29.59-.71,1.05-1.24,1.4-.54.34-1.16.51-1.89.51-.76,0-1.44-.16-2.02-.48-.58-.32-1.04-.77-1.36-1.36-.32-.58-.48-1.26-.48-2.02s.16-1.44.48-2.02c.32-.58.77-1.04,1.36-1.36.58-.32,1.26-.48,2.02-.48.72,0,1.35.17,1.89.51ZM199.32,75.07c.54-.54.82-1.26.82-2.15s-.27-1.61-.82-2.15c-.54-.54-1.26-.82-2.15-.82s-1.61.27-2.15.82c-.54.54-.82,1.26-.82,2.15s.27,1.61.82,2.15c.54.54,1.26.82,2.15.82s1.61-.27,2.15-.82ZM199.99,75.01l.45-2.09-.45-2.08v-5.5h1.04v11.29h-1.04v-1.62Z"/>
    <path class="cls-3" d="M221.38,76.06c-.66.48-1.48.72-2.44.72-.79,0-1.49-.16-2.1-.48s-1.08-.77-1.41-1.36c-.33-.58-.5-1.26-.5-2.02s.17-1.44.5-2.02c.33-.58.8-1.04,1.41-1.36s1.31-.48,2.1-.48c.96,0,1.77.24,2.44.72.66.48,1.1,1.13,1.31,1.95h-1.08c-.19-.55-.51-.99-.98-1.31s-1.02-.48-1.68-.48c-.89,0-1.61.27-2.15.82-.54.54-.82,1.26-.82,2.15s.27,1.61.82,2.15c.54.54,1.26.82,2.15.82.66,0,1.23-.16,1.7-.48.47-.32.79-.75.97-1.31h1.07c-.21.82-.64,1.47-1.31,1.95Z"/>
    <path class="cls-3" d="M228.67,69.2h1.04v7.43h-1.04v-7.43ZM229.71,70.55c.21-.47.51-.81.9-1.02.39-.21.88-.32,1.49-.32h.45v.89h-.45c-.84,0-1.45.18-1.82.55-.37.37-.56.98-.56,1.83h-.45c.08-.81.23-1.45.44-1.92Z"/>
    <path class="cls-3" d="M244.51,72.45l-.64.48c0-.58-.12-1.1-.36-1.56-.24-.46-.58-.81-1-1.05s-.91-.37-1.46-.37c-.5,0-.96.11-1.37.34-.41.23-.75.55-1,.97-.26.42-.41.9-.45,1.45v.43c.04.54.19,1.02.45,1.44.26.42.59.74,1.01.97.42.23.87.34,1.37.34.59,0,1.1-.12,1.51-.35.41-.23.74-.56.97-.99h1.11c-.31.7-.76,1.25-1.37,1.64-.61.39-1.35.59-2.22.59-.74,0-1.41-.16-2-.48-.59-.32-1.05-.77-1.37-1.36-.33-.58-.49-1.26-.49-2.02s.16-1.44.49-2.02c.33-.58.79-1.04,1.37-1.36.59-.32,1.26-.48,2-.48s1.41.16,2,.48,1.05.77,1.37,1.36c.33.58.49,1.26.49,2.02v.37h-7.17v-.82h6.77Z"/>
    <path class="cls-3" d="M256.2,69.57c.54.34.95.81,1.24,1.4.29.59.44,1.24.44,1.95s-.15,1.36-.44,1.95c-.29.59-.71,1.05-1.24,1.4-.54.34-1.16.51-1.89.51-.76,0-1.44-.16-2.02-.48-.58-.32-1.04-.77-1.36-1.36-.32-.58-.48-1.26-.48-2.02s.16-1.44.48-2.02c.32-.58.77-1.04,1.36-1.36.58-.32,1.26-.48,2.02-.48.72,0,1.35.17,1.89.51ZM256.61,75.07c.54-.54.82-1.26.82-2.15s-.27-1.61-.82-2.15c-.54-.54-1.26-.82-2.15-.82s-1.61.27-2.15.82c-.54.54-.82,1.26-.82,2.15s.27,1.61.82,2.15c.54.54,1.26.82,2.15.82s1.61-.27,2.15-.82ZM257.28,75.01l.45-2.09-.45-2.08v-1.63h1.04v7.43h-1.04v-1.62Z"/>
    <path class="cls-3" d="M265.83,76.18c-.32-.3-.48-.79-.48-1.49v-4.6h-1.49v-.89h.74c.33,0,.54-.06.65-.18.11-.12.19-.36.24-.71l.15-1.19h.74v7.58c0,.37.08.63.25.79.16.16.43.25.79.25h1.04v.89h-1.04c-.74,0-1.28-.15-1.6-.45ZM265.94,69.2h2.52v.89h-2.52v-.89Z"/>
    <path class="cls-3" d="M275.31,65.56c.14.14.21.32.21.53s-.07.38-.21.53-.32.22-.53.22-.38-.07-.53-.22-.22-.32-.22-.53.07-.38.22-.53c.14-.14.32-.22.53-.22s.38.07.53.22ZM275.3,69.2v7.43h-1.04v-7.43h1.04Z"/>
    <path class="cls-3" d="M288.37,69.2l-2.97,7.43h-1.49l-2.97-7.43h1.19l2.53,6.68,2.53-6.68h1.19Z"/>
    <path class="cls-3" d="M295.06,65.56c.14.14.21.32.21.53s-.07.38-.21.53-.32.22-.53.22-.38-.07-.53-.22-.22-.32-.22-.53.07-.38.22-.53c.14-.14.32-.22.53-.22s.38.07.53.22ZM295.05,69.2v7.43h-1.04v-7.43h1.04Z"/>
    <path class="cls-3" d="M302.67,76.18c-.32-.3-.48-.79-.48-1.49v-4.6h-1.49v-.89h.74c.33,0,.54-.06.65-.18.11-.12.19-.36.24-.71l.15-1.19h.74v7.58c0,.37.08.63.25.79.16.16.43.25.79.25h1.04v.89h-1.04c-.74,0-1.28-.15-1.6-.45ZM302.78,69.2h2.52v.89h-2.52v-.89Z"/>
    <path class="cls-3" d="M310.62,79.3h.59c.36,0,.64-.08.85-.24.21-.16.4-.45.58-.86l.65-1.57-3.19-7.43h1.19l2.6,6.12,2.45-6.12h1.19l-3.04,7.43-.85,1.89c-.27.6-.59,1.03-.96,1.29-.37.26-.86.39-1.46.39h-.59v-.89Z"/>
  </g>
  <g class="cls-4">
    <g>
      <polygon class="cls-2" points="58.34 6.59 49.92 28 28.47 21.59 27.88 21.41 15.17 17.61 5.85 14.81 36.3 0 58.34 6.59"/>
      <polygon class="cls-5" points="49.92 28 19.47 42.81 23.03 33.75 27.88 21.41 28.47 21.59 49.92 28"/>
    </g>
    <polygon class="cls-1" points="26.15 22.36 21.3 34.71 0 34.69 13.44 18.56 26.15 22.36"/>
  </g>
</svg>