<svg width="52" height="49" viewBox="0 0 52 49" fill="none" xmlns="http://www.w3.org/2000/svg">
<path d="M36 20L36.9944 23.9352L40.691 22.2591L38.2343 25.49L41.8496 27.3351L37.7918 27.4289L38.6033 31.4058L36 28.2918L33.3967 31.4058L34.2082 27.4289L30.1504 27.3351L33.7657 25.49L31.309 22.2591L35.0056 23.9352L36 20Z" fill="white"/>
<path d="M5 27L5.82864 30.2793L8.90916 28.8826L6.86194 31.575L9.87464 33.1126L6.49316 33.1908L7.16942 36.5048L5 33.9098L2.83058 36.5048L3.50683 33.1908L0.125359 33.1126L3.13805 31.575L1.09084 28.8826L4.17135 30.2793L5 27Z" fill="white"/>
<path d="M32 4L32.4972 5.96758L34.3455 5.12953L33.1172 6.74501L34.9248 7.66756L32.8959 7.71446L33.3017 9.70291L32 8.1459L30.6983 9.70291L31.1041 7.71446L29.0752 7.66756L30.8828 6.74501L29.6545 5.12953L31.5028 5.96758L32 4Z" fill="white"/>
<path d="M32 43L32.4972 44.9676L34.3455 44.1295L33.1172 45.745L34.9248 46.6676L32.8959 46.7145L33.3017 48.7029L32 47.1459L30.6983 48.7029L31.1041 46.7145L29.0752 46.6676L30.8828 45.745L29.6545 44.1295L31.5028 44.9676L32 43Z" fill="white"/>
<path d="M49 28L49.4972 29.9676L51.3455 29.1295L50.1172 30.745L51.9248 31.6676L49.8959 31.7145L50.3017 33.7029L49 32.1459L47.6983 33.7029L48.1041 31.7145L46.0752 31.6676L47.8828 30.745L46.6545 29.1295L48.5028 29.9676L49 28Z" fill="white"/>
<path d="M11 0L12.1601 4.59102L16.4728 2.63557L13.6067 6.40503L17.8245 8.55765L13.0904 8.66706L14.0372 13.3068L11 9.67376L7.96281 13.3068L8.90957 8.66706L4.1755 8.55765L8.39327 6.40503L5.52718 2.63557L9.8399 4.59102L11 0Z" fill="white"/>
<path d="M19 19L19.3315 20.3117L20.5637 19.753L19.7448 20.83L20.9499 21.445L19.5973 21.4763L19.8678 22.8019L19 21.7639L18.1322 22.8019L18.4027 21.4763L17.0501 21.445L18.2552 20.83L17.4363 19.753L18.6685 20.3117L19 19Z" fill="white"/>
<path d="M46 18L46.1657 18.6559L46.7818 18.3765L46.3724 18.915L46.9749 19.2225L46.2986 19.2382L46.4339 19.901L46 19.382L45.5661 19.901L45.7014 19.2382L45.0251 19.2225L45.6276 18.915L45.2182 18.3765L45.8343 18.6559L46 18Z" fill="white"/>
</svg>
