<svg width="350" height="297" viewBox="0 0 350 297" fill="none" xmlns="http://www.w3.org/2000/svg">
<path d="M132.156 188.503C135.323 126.336 154.256 1.80253 204.656 1.00253C267.656 0.00252809 149.656 296.003 149.656 296.003M93.1564 143.003C132.323 108.003 222.956 43.4025 272.156 65.0025M247.156 10.0025C257.208 42.7351 246.8 106.955 234.354 161.503M234.354 161.503C222.655 212.775 209.156 255.503 209.156 255.503C286.356 237.103 325.656 201.836 335.656 186.503C357.622 154.669 368.112 105.103 234.354 161.503ZM234.354 161.503C143.455 215.336 -29.5436 285.503 5.65643 135.503" stroke="black"/>
</svg>
